{
    "asset" : {
        "generator" : "Khronos glTF Blender I/O v3.3.32",
        "version" : "2.0"
    },
    "scene" : 0,
    "scenes" : [
        {
            "name" : "Scene",
            "nodes" : [
                13
            ]
        }
    ],
    "nodes" : [
        {
            "mesh" : 0,
            "name" : "wingBL",
            "translation" : [
                8.994077682495117,
                4.646523475646973,
                7.148098468780518
            ]
        },
        {
            "mesh" : 1,
            "name" : "wingBR",
            "translation" : [
                -8.994081497192383,
                4.646517753601074,
                7.148098468780518
            ]
        },
        {
            "mesh" : 2,
            "name" : "wingFL",
            "translation" : [
                5.9284234046936035,
                -7.544322490692139,
                5.9572930335998535
            ]
        },
        {
            "mesh" : 3,
            "name" : "wingFR",
            "translation" : [
                -5.9284186363220215,
                -7.544326305389404,
                5.957292556762695
            ]
        },
        {
            "children" : [
                0,
                1,
                2,
                3
            ],
            "mesh" : 4,
            "name" : "base"
        },
        {
            "name" : "turret1spawner",
            "translation" : [
                2.738758439591038e-06,
                -8.405189514160156,
                0
            ]
        },
        {
            "children" : [
                5
            ],
            "mesh" : 5,
            "name" : "turret1",
            "translation" : [
                0,
                -3.7717366218566895,
                -0.3479270935058594
            ]
        },
        {
            "name" : "turret2spawner",
            "translation" : [
                2.7418136596679688e-06,
                -8.405189514160156,
                0
            ]
        },
        {
            "children" : [
                7
            ],
            "mesh" : 6,
            "name" : "turret2",
            "translation" : [
                -0.9116684198379517,
                -3.7717370986938477,
                -1.2314338684082031
            ]
        },
        {
            "name" : "turret3spawner",
            "translation" : [
                2.7418136596679688e-06,
                -8.405189514160156,
                0
            ]
        },
        {
            "children" : [
                9
            ],
            "mesh" : 7,
            "name" : "turret3",
            "translation" : [
                0.9116708040237427,
                -3.7717361450195312,
                -1.2314338684082031
            ]
        },
        {
            "children" : [
                6,
                8,
                10
            ],
            "mesh" : 8,
            "name" : "turretbase",
            "translation" : [
                0,
                -0.004331827163696289,
                -1.4832322597503662
            ]
        },
        {
            "children" : [
                11
            ],
            "mesh" : 9,
            "name" : "turretaxis",
            "translation" : [
                0,
                -2.825105905532837,
                3.9464924335479736
            ]
        },
        {
            "children" : [
                4,
                12
            ],
            "name" : "base_root"
        }
    ],
    "meshes" : [
        {
            "name" : "bow_laserdrone_ref.006",
            "primitives" : [
                {
                    "attributes" : {
                        "POSITION" : 0,
                        "NORMAL" : 1,
                        "TANGENT" : 2,
                        "TEXCOORD_0" : 3
                    },
                    "indices" : 4
                }
            ]
        },
        {
            "name" : "bow_laserdrone_ref.007",
            "primitives" : [
                {
                    "attributes" : {
                        "POSITION" : 5,
                        "NORMAL" : 6,
                        "TANGENT" : 7,
                        "TEXCOORD_0" : 8
                    },
                    "indices" : 9
                }
            ]
        },
        {
            "name" : "bow_laserdrone_ref.009",
            "primitives" : [
                {
                    "attributes" : {
                        "POSITION" : 10,
                        "NORMAL" : 11,
                        "TANGENT" : 12,
                        "TEXCOORD_0" : 13
                    },
                    "indices" : 14
                }
            ]
        },
        {
            "name" : "bow_laserdrone_ref.008",
            "primitives" : [
                {
                    "attributes" : {
                        "POSITION" : 15,
                        "NORMAL" : 16,
                        "TANGENT" : 17,
                        "TEXCOORD_0" : 18
                    },
                    "indices" : 19
                }
            ]
        },
        {
            "name" : "bow_laserdrone_ref",
            "primitives" : [
                {
                    "attributes" : {
                        "POSITION" : 20,
                        "NORMAL" : 21,
                        "TANGENT" : 22,
                        "TEXCOORD_0" : 23
                    },
                    "indices" : 24
                }
            ]
        },
        {
            "name" : "bow_laserdrone_ref.001",
            "primitives" : [
                {
                    "attributes" : {
                        "POSITION" : 25,
                        "NORMAL" : 26,
                        "TANGENT" : 27,
                        "TEXCOORD_0" : 28
                    },
                    "indices" : 29
                }
            ]
        },
        {
            "name" : "bow_laserdrone_ref.002",
            "primitives" : [
                {
                    "attributes" : {
                        "POSITION" : 30,
                        "NORMAL" : 31,
                        "TANGENT" : 32,
                        "TEXCOORD_0" : 33
                    },
                    "indices" : 34
                }
            ]
        },
        {
            "name" : "bow_laserdrone_ref.003",
            "primitives" : [
                {
                    "attributes" : {
                        "POSITION" : 35,
                        "NORMAL" : 36,
                        "TANGENT" : 37,
                        "TEXCOORD_0" : 38
                    },
                    "indices" : 29
                }
            ]
        },
        {
            "name" : "bow_laserdrone_ref.004",
            "primitives" : [
                {
                    "attributes" : {
                        "POSITION" : 39,
                        "NORMAL" : 40,
                        "TANGENT" : 41,
                        "TEXCOORD_0" : 42
                    },
                    "indices" : 43
                }
            ]
        },
        {
            "name" : "bow_laserdrone_ref.005",
            "primitives" : [
                {
                    "attributes" : {
                        "POSITION" : 44,
                        "NORMAL" : 45,
                        "TANGENT" : 46,
                        "TEXCOORD_0" : 47
                    },
                    "indices" : 48
                }
            ]
        }
    ],
    "accessors" : [
        {
            "bufferView" : 0,
            "componentType" : 5126,
            "count" : 448,
            "max" : [
                7.671534538269043,
                5.987112998962402,
                0.8201680183410645
            ],
            "min" : [
                -0.7635630369186401,
                -1.3921434879302979,
                -0.9601514935493469
            ],
            "type" : "VEC3"
        },
        {
            "bufferView" : 1,
            "componentType" : 5126,
            "count" : 448,
            "type" : "VEC3"
        },
        {
            "bufferView" : 2,
            "componentType" : 5126,
            "count" : 448,
            "type" : "VEC4"
        },
        {
            "bufferView" : 3,
            "componentType" : 5126,
            "count" : 448,
            "type" : "VEC2"
        },
        {
            "bufferView" : 4,
            "componentType" : 5123,
            "count" : 672,
            "type" : "SCALAR"
        },
        {
            "bufferView" : 5,
            "componentType" : 5126,
            "count" : 448,
            "max" : [
                0.7635626792907715,
                5.9871110916137695,
                0.8201680779457092
            ],
            "min" : [
                -7.671536445617676,
                -1.3921440839767456,
                -0.9601514935493469
            ],
            "type" : "VEC3"
        },
        {
            "bufferView" : 6,
            "componentType" : 5126,
            "count" : 448,
            "type" : "VEC3"
        },
        {
            "bufferView" : 7,
            "componentType" : 5126,
            "count" : 448,
            "type" : "VEC4"
        },
        {
            "bufferView" : 8,
            "componentType" : 5126,
            "count" : 448,
            "type" : "VEC2"
        },
        {
            "bufferView" : 9,
            "componentType" : 5123,
            "count" : 672,
            "type" : "SCALAR"
        },
        {
            "bufferView" : 10,
            "componentType" : 5126,
            "count" : 397,
            "max" : [
                8.87273120880127,
                2.5070950984954834,
                0.820167064666748
            ],
            "min" : [
                -0.4489554762840271,
                -7.157764434814453,
                -0.819922685623169
            ],
            "type" : "VEC3"
        },
        {
            "bufferView" : 11,
            "componentType" : 5126,
            "count" : 397,
            "type" : "VEC3"
        },
        {
            "bufferView" : 12,
            "componentType" : 5126,
            "count" : 397,
            "type" : "VEC4"
        },
        {
            "bufferView" : 13,
            "componentType" : 5126,
            "count" : 397,
            "type" : "VEC2"
        },
        {
            "bufferView" : 14,
            "componentType" : 5123,
            "count" : 696,
            "type" : "SCALAR"
        },
        {
            "bufferView" : 15,
            "componentType" : 5126,
            "count" : 397,
            "max" : [
                0.4489562511444092,
                2.507092237472534,
                0.8201675415039062
            ],
            "min" : [
                -8.872729301452637,
                -7.157771110534668,
                -0.8199230432510376
            ],
            "type" : "VEC3"
        },
        {
            "bufferView" : 16,
            "componentType" : 5126,
            "count" : 397,
            "type" : "VEC3"
        },
        {
            "bufferView" : 17,
            "componentType" : 5126,
            "count" : 397,
            "type" : "VEC4"
        },
        {
            "bufferView" : 18,
            "componentType" : 5126,
            "count" : 397,
            "type" : "VEC2"
        },
        {
            "bufferView" : 19,
            "componentType" : 5123,
            "count" : 696,
            "type" : "SCALAR"
        },
        {
            "bufferView" : 20,
            "componentType" : 5126,
            "count" : 1540,
            "max" : [
                10.06393814086914,
                8.388813018798828,
                12.651725769042969
            ],
            "min" : [
                -10.063940048217773,
                -12.364521026611328,
                3.9739773273468018
            ],
            "type" : "VEC3"
        },
        {
            "bufferView" : 21,
            "componentType" : 5126,
            "count" : 1540,
            "type" : "VEC3"
        },
        {
            "bufferView" : 22,
            "componentType" : 5126,
            "count" : 1540,
            "type" : "VEC4"
        },
        {
            "bufferView" : 23,
            "componentType" : 5126,
            "count" : 1540,
            "type" : "VEC2"
        },
        {
            "bufferView" : 24,
            "componentType" : 5123,
            "count" : 2352,
            "type" : "SCALAR"
        },
        {
            "bufferView" : 25,
            "componentType" : 5126,
            "count" : 78,
            "max" : [
                0.5029425621032715,
                5.131694251758745e-07,
                0.4182538390159607
            ],
            "min" : [
                -0.5029319524765015,
                -8.052600860595703,
                -0.4183744490146637
            ],
            "type" : "VEC3"
        },
        {
            "bufferView" : 26,
            "componentType" : 5126,
            "count" : 78,
            "type" : "VEC3"
        },
        {
            "bufferView" : 27,
            "componentType" : 5126,
            "count" : 78,
            "type" : "VEC4"
        },
        {
            "bufferView" : 28,
            "componentType" : 5126,
            "count" : 78,
            "type" : "VEC2"
        },
        {
            "bufferView" : 29,
            "componentType" : 5123,
            "count" : 120,
            "type" : "SCALAR"
        },
        {
            "bufferView" : 30,
            "componentType" : 5126,
            "count" : 78,
            "max" : [
                0.5029372572898865,
                8.856984550220659e-07,
                0.4182536005973816
            ],
            "min" : [
                -0.5029372572898865,
                -8.052600860595703,
                -0.4183746874332428
            ],
            "type" : "VEC3"
        },
        {
            "bufferView" : 31,
            "componentType" : 5126,
            "count" : 78,
            "type" : "VEC3"
        },
        {
            "bufferView" : 32,
            "componentType" : 5126,
            "count" : 78,
            "type" : "VEC4"
        },
        {
            "bufferView" : 33,
            "componentType" : 5126,
            "count" : 78,
            "type" : "VEC2"
        },
        {
            "bufferView" : 34,
            "componentType" : 5123,
            "count" : 120,
            "type" : "SCALAR"
        },
        {
            "bufferView" : 35,
            "componentType" : 5126,
            "count" : 78,
            "max" : [
                0.5029425024986267,
                8.856984550220659e-07,
                0.4182536005973816
            ],
            "min" : [
                -0.5029320120811462,
                -8.052600860595703,
                -0.4183746874332428
            ],
            "type" : "VEC3"
        },
        {
            "bufferView" : 36,
            "componentType" : 5126,
            "count" : 78,
            "type" : "VEC3"
        },
        {
            "bufferView" : 37,
            "componentType" : 5126,
            "count" : 78,
            "type" : "VEC4"
        },
        {
            "bufferView" : 38,
            "componentType" : 5126,
            "count" : 78,
            "type" : "VEC2"
        },
        {
            "bufferView" : 39,
            "componentType" : 5126,
            "count" : 128,
            "max" : [
                2.0291249752044678,
                0.8761659860610962,
                0.5816996097564697
            ],
            "min" : [
                -2.0291225910186768,
                -5.046474933624268,
                -2.088024854660034
            ],
            "type" : "VEC3"
        },
        {
            "bufferView" : 40,
            "componentType" : 5126,
            "count" : 128,
            "type" : "VEC3"
        },
        {
            "bufferView" : 41,
            "componentType" : 5126,
            "count" : 128,
            "type" : "VEC4"
        },
        {
            "bufferView" : 42,
            "componentType" : 5126,
            "count" : 128,
            "type" : "VEC2"
        },
        {
            "bufferView" : 43,
            "componentType" : 5123,
            "count" : 192,
            "type" : "SCALAR"
        },
        {
            "bufferView" : 44,
            "componentType" : 5126,
            "count" : 72,
            "max" : [
                1.289573311805725,
                1.4805757999420166,
                0.0025413930416107178
            ],
            "min" : [
                -1.2895737886428833,
                -1.480575442314148,
                -2.3331151008605957
            ],
            "type" : "VEC3"
        },
        {
            "bufferView" : 45,
            "componentType" : 5126,
            "count" : 72,
            "type" : "VEC3"
        },
        {
            "bufferView" : 46,
            "componentType" : 5126,
            "count" : 72,
            "type" : "VEC4"
        },
        {
            "bufferView" : 47,
            "componentType" : 5126,
            "count" : 72,
            "type" : "VEC2"
        },
        {
            "bufferView" : 48,
            "componentType" : 5123,
            "count" : 120,
            "type" : "SCALAR"
        }
    ],
    "bufferViews" : [
        {
            "buffer" : 0,
            "byteLength" : 5376,
            "byteOffset" : 0,
            "target" : 34962
        },
        {
            "buffer" : 0,
            "byteLength" : 5376,
            "byteOffset" : 5376,
            "target" : 34962
        },
        {
            "buffer" : 0,
            "byteLength" : 7168,
            "byteOffset" : 10752,
            "target" : 34962
        },
        {
            "buffer" : 0,
            "byteLength" : 3584,
            "byteOffset" : 17920,
            "target" : 34962
        },
        {
            "buffer" : 0,
            "byteLength" : 1344,
            "byteOffset" : 21504,
            "target" : 34963
        },
        {
            "buffer" : 0,
            "byteLength" : 5376,
            "byteOffset" : 22848,
            "target" : 34962
        },
        {
            "buffer" : 0,
            "byteLength" : 5376,
            "byteOffset" : 28224,
            "target" : 34962
        },
        {
            "buffer" : 0,
            "byteLength" : 7168,
            "byteOffset" : 33600,
            "target" : 34962
        },
        {
            "buffer" : 0,
            "byteLength" : 3584,
            "byteOffset" : 40768,
            "target" : 34962
        },
        {
            "buffer" : 0,
            "byteLength" : 1344,
            "byteOffset" : 44352,
            "target" : 34963
        },
        {
            "buffer" : 0,
            "byteLength" : 4764,
            "byteOffset" : 45696,
            "target" : 34962
        },
        {
            "buffer" : 0,
            "byteLength" : 4764,
            "byteOffset" : 50460,
            "target" : 34962
        },
        {
            "buffer" : 0,
            "byteLength" : 6352,
            "byteOffset" : 55224,
            "target" : 34962
        },
        {
            "buffer" : 0,
            "byteLength" : 3176,
            "byteOffset" : 61576,
            "target" : 34962
        },
        {
            "buffer" : 0,
            "byteLength" : 1392,
            "byteOffset" : 64752,
            "target" : 34963
        },
        {
            "buffer" : 0,
            "byteLength" : 4764,
            "byteOffset" : 66144,
            "target" : 34962
        },
        {
            "buffer" : 0,
            "byteLength" : 4764,
            "byteOffset" : 70908,
            "target" : 34962
        },
        {
            "buffer" : 0,
            "byteLength" : 6352,
            "byteOffset" : 75672,
            "target" : 34962
        },
        {
            "buffer" : 0,
            "byteLength" : 3176,
            "byteOffset" : 82024,
            "target" : 34962
        },
        {
            "buffer" : 0,
            "byteLength" : 1392,
            "byteOffset" : 85200,
            "target" : 34963
        },
        {
            "buffer" : 0,
            "byteLength" : 18480,
            "byteOffset" : 86592,
            "target" : 34962
        },
        {
            "buffer" : 0,
            "byteLength" : 18480,
            "byteOffset" : 105072,
            "target" : 34962
        },
        {
            "buffer" : 0,
            "byteLength" : 24640,
            "byteOffset" : 123552,
            "target" : 34962
        },
        {
            "buffer" : 0,
            "byteLength" : 12320,
            "byteOffset" : 148192,
            "target" : 34962
        },
        {
            "buffer" : 0,
            "byteLength" : 4704,
            "byteOffset" : 160512,
            "target" : 34963
        },
        {
            "buffer" : 0,
            "byteLength" : 936,
            "byteOffset" : 165216,
            "target" : 34962
        },
        {
            "buffer" : 0,
            "byteLength" : 936,
            "byteOffset" : 166152,
            "target" : 34962
        },
        {
            "buffer" : 0,
            "byteLength" : 1248,
            "byteOffset" : 167088,
            "target" : 34962
        },
        {
            "buffer" : 0,
            "byteLength" : 624,
            "byteOffset" : 168336,
            "target" : 34962
        },
        {
            "buffer" : 0,
            "byteLength" : 240,
            "byteOffset" : 168960,
            "target" : 34963
        },
        {
            "buffer" : 0,
            "byteLength" : 936,
            "byteOffset" : 169200,
            "target" : 34962
        },
        {
            "buffer" : 0,
            "byteLength" : 936,
            "byteOffset" : 170136,
            "target" : 34962
        },
        {
            "buffer" : 0,
            "byteLength" : 1248,
            "byteOffset" : 171072,
            "target" : 34962
        },
        {
            "buffer" : 0,
            "byteLength" : 624,
            "byteOffset" : 172320,
            "target" : 34962
        },
        {
            "buffer" : 0,
            "byteLength" : 240,
            "byteOffset" : 172944,
            "target" : 34963
        },
        {
            "buffer" : 0,
            "byteLength" : 936,
            "byteOffset" : 173184,
            "target" : 34962
        },
        {
            "buffer" : 0,
            "byteLength" : 936,
            "byteOffset" : 174120,
            "target" : 34962
        },
        {
            "buffer" : 0,
            "byteLength" : 1248,
            "byteOffset" : 175056,
            "target" : 34962
        },
        {
            "buffer" : 0,
            "byteLength" : 624,
            "byteOffset" : 176304,
            "target" : 34962
        },
        {
            "buffer" : 0,
            "byteLength" : 1536,
            "byteOffset" : 176928,
            "target" : 34962
        },
        {
            "buffer" : 0,
            "byteLength" : 1536,
            "byteOffset" : 178464,
            "target" : 34962
        },
        {
            "buffer" : 0,
            "byteLength" : 2048,
            "byteOffset" : 180000,
            "target" : 34962
        },
        {
            "buffer" : 0,
            "byteLength" : 1024,
            "byteOffset" : 182048,
            "target" : 34962
        },
        {
            "buffer" : 0,
            "byteLength" : 384,
            "byteOffset" : 183072,
            "target" : 34963
        },
        {
            "buffer" : 0,
            "byteLength" : 864,
            "byteOffset" : 183456,
            "target" : 34962
        },
        {
            "buffer" : 0,
            "byteLength" : 864,
            "byteOffset" : 184320,
            "target" : 34962
        },
        {
            "buffer" : 0,
            "byteLength" : 1152,
            "byteOffset" : 185184,
            "target" : 34962
        },
        {
            "buffer" : 0,
            "byteLength" : 576,
            "byteOffset" : 186336,
            "target" : 34962
        },
        {
            "buffer" : 0,
            "byteLength" : 240,
            "byteOffset" : 186912,
            "target" : 34963
        }
    ],
    "buffers" : [
        {
            "byteLength" : 187152,
            "uri" : "data:application/octet-stream;base64,"
        }
    ]
}
