{
    "asset" : {
        "generator" : "Khronos glTF Blender I/O v3.3.32",
        "version" : "2.0"
    },
    "scene" : 0,
    "scenes" : [
        {
            "name" : "Scene",
            "nodes" : [
                4
            ]
        }
    ],
    "nodes" : [
        {
            "name" : "firepoint",
            "translation" : [
                0,
                -4.759189605712891,
                0
            ]
        },
        {
            "children" : [
                0
            ],
            "mesh" : 0,
            "name" : "tip",
            "translation" : [
                0.13068154454231262,
                -54.335567474365234,
                -0.22995758056640625
            ]
        },
        {
            "children" : [
                1
            ],
            "mesh" : 1,
            "name" : "sleeve",
            "translation" : [
                -0.22791291773319244,
                0,
                29.11396026611328
            ]
        },
        {
            "children" : [
                2
            ],
            "mesh" : 2,
            "name" : "turret",
            "translation" : [
                0,
                7.62939453125e-06,
                55.18560028076172
            ]
        },
        {
            "children" : [
                3
            ],
            "mesh" : 3,
            "name" : "base"
        }
    ],
    "meshes" : [
        {
            "name" : "Cylinder.017",
            "primitives" : [
                {
                    "attributes" : {
                        "POSITION" : 0,
                        "NORMAL" : 1,
                        "TANGENT" : 2,
                        "TEXCOORD_0" : 3
                    },
                    "indices" : 4
                }
            ]
        },
        {
            "name" : "Cylinder.247",
            "primitives" : [
                {
                    "attributes" : {
                        "POSITION" : 5,
                        "NORMAL" : 6,
                        "TANGENT" : 7,
                        "TEXCOORD_0" : 8
                    },
                    "indices" : 9
                }
            ]
        },
        {
            "name" : "Cylinder.248",
            "primitives" : [
                {
                    "attributes" : {
                        "POSITION" : 10,
                        "NORMAL" : 11,
                        "TANGENT" : 12,
                        "TEXCOORD_0" : 13
                    },
                    "indices" : 14
                }
            ]
        },
        {
            "name" : "Mesh.033",
            "primitives" : [
                {
                    "attributes" : {
                        "POSITION" : 15,
                        "NORMAL" : 16,
                        "TEXCOORD_0" : 17,
                        "TEXCOORD_1" : 18
                    },
                    "indices" : 19
                }
            ]
        }
    ],
    "accessors" : [
        {
            "bufferView" : 0,
            "componentType" : 5126,
            "count" : 128,
            "max" : [
                3.962604522705078,
                3.3617429733276367,
                4.956834316253662
            ],
            "min" : [
                -3.9507529735565186,
                0,
                -2.5504372119903564
            ],
            "type" : "VEC3"
        },
        {
            "bufferView" : 1,
            "componentType" : 5126,
            "count" : 128,
            "type" : "VEC3"
        },
        {
            "bufferView" : 2,
            "componentType" : 5126,
            "count" : 128,
            "type" : "VEC4"
        },
        {
            "bufferView" : 3,
            "componentType" : 5126,
            "count" : 128,
            "type" : "VEC2"
        },
        {
            "bufferView" : 4,
            "componentType" : 5123,
            "count" : 204,
            "type" : "SCALAR"
        },
        {
            "bufferView" : 5,
            "componentType" : 5126,
            "count" : 1930,
            "max" : [
                17.568302154541016,
                21.078264236450195,
                15.350218772888184
            ],
            "min" : [
                -17.568302154541016,
                -56.714622497558594,
                -16.216699600219727
            ],
            "type" : "VEC3"
        },
        {
            "bufferView" : 6,
            "componentType" : 5126,
            "count" : 1930,
            "type" : "VEC3"
        },
        {
            "bufferView" : 7,
            "componentType" : 5126,
            "count" : 1930,
            "type" : "VEC4"
        },
        {
            "bufferView" : 8,
            "componentType" : 5126,
            "count" : 1930,
            "type" : "VEC2"
        },
        {
            "bufferView" : 9,
            "componentType" : 5123,
            "count" : 2922,
            "type" : "SCALAR"
        },
        {
            "bufferView" : 10,
            "componentType" : 5126,
            "count" : 362,
            "max" : [
                13.9611234664917,
                4.192352771759033,
                30.969600677490234
            ],
            "min" : [
                -13.9611234664917,
                -4.192372798919678,
                -4.4742268983100075e-06
            ],
            "type" : "VEC3"
        },
        {
            "bufferView" : 11,
            "componentType" : 5126,
            "count" : 362,
            "type" : "VEC3"
        },
        {
            "bufferView" : 12,
            "componentType" : 5126,
            "count" : 362,
            "type" : "VEC4"
        },
        {
            "bufferView" : 13,
            "componentType" : 5126,
            "count" : 362,
            "type" : "VEC2"
        },
        {
            "bufferView" : 14,
            "componentType" : 5123,
            "count" : 552,
            "type" : "SCALAR"
        },
        {
            "bufferView" : 15,
            "componentType" : 5126,
            "count" : 1619,
            "max" : [
                29.336414337158203,
                29.3364200592041,
                55.18560028076172
            ],
            "min" : [
                -29.336414337158203,
                -33.93766784667969,
                -0.02060171402990818
            ],
            "type" : "VEC3"
        },
        {
            "bufferView" : 16,
            "componentType" : 5126,
            "count" : 1619,
            "type" : "VEC3"
        },
        {
            "bufferView" : 17,
            "componentType" : 5126,
            "count" : 1619,
            "type" : "VEC2"
        },
        {
            "bufferView" : 18,
            "componentType" : 5126,
            "count" : 1619,
            "type" : "VEC2"
        },
        {
            "bufferView" : 19,
            "componentType" : 5123,
            "count" : 2586,
            "type" : "SCALAR"
        }
    ],
    "bufferViews" : [
        {
            "buffer" : 0,
            "byteLength" : 1536,
            "byteOffset" : 0,
            "target" : 34962
        },
        {
            "buffer" : 0,
            "byteLength" : 1536,
            "byteOffset" : 1536,
            "target" : 34962
        },
        {
            "buffer" : 0,
            "byteLength" : 2048,
            "byteOffset" : 3072,
            "target" : 34962
        },
        {
            "buffer" : 0,
            "byteLength" : 1024,
            "byteOffset" : 5120,
            "target" : 34962
        },
        {
            "buffer" : 0,
            "byteLength" : 408,
            "byteOffset" : 6144,
            "target" : 34963
        },
        {
            "buffer" : 0,
            "byteLength" : 23160,
            "byteOffset" : 6552,
            "target" : 34962
        },
        {
            "buffer" : 0,
            "byteLength" : 23160,
            "byteOffset" : 29712,
            "target" : 34962
        },
        {
            "buffer" : 0,
            "byteLength" : 30880,
            "byteOffset" : 52872,
            "target" : 34962
        },
        {
            "buffer" : 0,
            "byteLength" : 15440,
            "byteOffset" : 83752,
            "target" : 34962
        },
        {
            "buffer" : 0,
            "byteLength" : 5844,
            "byteOffset" : 99192,
            "target" : 34963
        },
        {
            "buffer" : 0,
            "byteLength" : 4344,
            "byteOffset" : 105036,
            "target" : 34962
        },
        {
            "buffer" : 0,
            "byteLength" : 4344,
            "byteOffset" : 109380,
            "target" : 34962
        },
        {
            "buffer" : 0,
            "byteLength" : 5792,
            "byteOffset" : 113724,
            "target" : 34962
        },
        {
            "buffer" : 0,
            "byteLength" : 2896,
            "byteOffset" : 119516,
            "target" : 34962
        },
        {
            "buffer" : 0,
            "byteLength" : 1104,
            "byteOffset" : 122412,
            "target" : 34963
        },
        {
            "buffer" : 0,
            "byteLength" : 19428,
            "byteOffset" : 123516,
            "target" : 34962
        },
        {
            "buffer" : 0,
            "byteLength" : 19428,
            "byteOffset" : 142944,
            "target" : 34962
        },
        {
            "buffer" : 0,
            "byteLength" : 12952,
            "byteOffset" : 162372,
            "target" : 34962
        },
        {
            "buffer" : 0,
            "byteLength" : 12952,
            "byteOffset" : 175324,
            "target" : 34962
        },
        {
            "buffer" : 0,
            "byteLength" : 5172,
            "byteOffset" : 188276,
            "target" : 34963
        }
    ],
    "buffers" : [
        {
            "byteLength" : 193448,
            "uri" : "data:application/octet-stream;base64,"
        }
    ]
}
