{
    "asset" : {
        "generator" : "Khronos glTF Blender I/O v3.3.32",
        "version" : "2.0"
    },
    "scene" : 0,
    "scenes" : [
        {
            "name" : "Scene",
            "nodes" : [
                6
            ]
        }
    ],
    "nodes" : [
        {
            "mesh" : 0,
            "name" : "missileprop_L",
            "scale" : [
                1.2698416709899902,
                1.2698416709899902,
                1.2698416709899902
            ],
            "translation" : [
                -0.21972022950649261,
                0.9125157594680786,
                0.16384117305278778
            ]
        },
        {
            "mesh" : 1,
            "name" : "missileprop_R",
            "scale" : [
                1.2698416709899902,
                1.2698416709899902,
                1.2698416709899902
            ],
            "translation" : [
                0.21972022950649261,
                0.9125157594680786,
                0.16384117305278778
            ]
        },
        {
            "mesh" : 2,
            "name" : "wingtip_L",
            "rotation" : [
                0,
                0.5000000596046448,
                0,
                0.8660253882408142
            ],
            "translation" : [
                -0.5749915242195129,
                0.0010143816471099854,
                0.047216713428497314
            ]
        },
        {
            "children" : [
                2
            ],
            "mesh" : 3,
            "name" : "wingbase_L",
            "rotation" : [
                0,
                -0.5,
                0,
                0.8660253882408142
            ],
            "translation" : [
                -0.4300859272480011,
                -0.12591291964054108,
                0.16285711526870728
            ]
        },
        {
            "mesh" : 4,
            "name" : "wingtip_R",
            "rotation" : [
                0,
                -0.5000000596046448,
                0,
                0.8660253882408142
            ],
            "translation" : [
                0.5749912858009338,
                0.0010143890976905823,
                0.04721666872501373
            ]
        },
        {
            "children" : [
                4
            ],
            "mesh" : 5,
            "name" : "wingbase_R",
            "rotation" : [
                0,
                0.5,
                0,
                0.8660253882408142
            ],
            "translation" : [
                0.4300859272480011,
                -0.12591291964054108,
                0.16285711526870728
            ]
        },
        {
            "children" : [
                0,
                1,
                3,
                5
            ],
            "mesh" : 6,
            "name" : "bow_banshee",
            "scale" : [
                0.7874999642372131,
                0.7874999642372131,
                0.7874999642372131
            ]
        }
    ],
    "meshes" : [
        {
            "name" : "Mesh.001",
            "primitives" : [
                {
                    "attributes" : {
                        "POSITION" : 0,
                        "NORMAL" : 1,
                        "TANGENT" : 2,
                        "TEXCOORD_0" : 3
                    },
                    "indices" : 4
                }
            ]
        },
        {
            "name" : "Mesh.003",
            "primitives" : [
                {
                    "attributes" : {
                        "POSITION" : 5,
                        "NORMAL" : 6,
                        "TANGENT" : 7,
                        "TEXCOORD_0" : 8
                    },
                    "indices" : 4
                }
            ]
        },
        {
            "name" : "Mesh.006",
            "primitives" : [
                {
                    "attributes" : {
                        "POSITION" : 9,
                        "NORMAL" : 10,
                        "TANGENT" : 11,
                        "TEXCOORD_0" : 12,
                        "TEXCOORD_1" : 13
                    },
                    "indices" : 14
                }
            ]
        },
        {
            "name" : "Mesh.004",
            "primitives" : [
                {
                    "attributes" : {
                        "POSITION" : 15,
                        "NORMAL" : 16,
                        "TEXCOORD_0" : 17,
                        "TEXCOORD_1" : 18
                    },
                    "indices" : 19
                }
            ]
        },
        {
            "name" : "Mesh.008",
            "primitives" : [
                {
                    "attributes" : {
                        "POSITION" : 20,
                        "NORMAL" : 21,
                        "TANGENT" : 22,
                        "TEXCOORD_0" : 23,
                        "TEXCOORD_1" : 24
                    },
                    "indices" : 25
                }
            ]
        },
        {
            "name" : "Mesh.005",
            "primitives" : [
                {
                    "attributes" : {
                        "POSITION" : 26,
                        "NORMAL" : 27,
                        "TEXCOORD_0" : 28,
                        "TEXCOORD_1" : 29
                    },
                    "indices" : 30
                }
            ]
        },
        {
            "name" : "Mesh.023",
            "primitives" : [
                {
                    "attributes" : {
                        "POSITION" : 31,
                        "NORMAL" : 32,
                        "TANGENT" : 33,
                        "TEXCOORD_0" : 34,
                        "TEXCOORD_1" : 35
                    },
                    "indices" : 36
                }
            ]
        }
    ],
    "accessors" : [
        {
            "bufferView" : 0,
            "componentType" : 5126,
            "count" : 144,
            "max" : [
                0.033479973673820496,
                0.11023545265197754,
                0.04271312057971954
            ],
            "min" : [
                -0.03347998857498169,
                -0.11892783641815186,
                -0.042490601539611816
            ],
            "type" : "VEC3"
        },
        {
            "bufferView" : 1,
            "componentType" : 5126,
            "count" : 144,
            "type" : "VEC3"
        },
        {
            "bufferView" : 2,
            "componentType" : 5126,
            "count" : 144,
            "type" : "VEC4"
        },
        {
            "bufferView" : 3,
            "componentType" : 5126,
            "count" : 144,
            "type" : "VEC2"
        },
        {
            "bufferView" : 4,
            "componentType" : 5123,
            "count" : 228,
            "type" : "SCALAR"
        },
        {
            "bufferView" : 5,
            "componentType" : 5126,
            "count" : 144,
            "max" : [
                0.033479973673820496,
                0.11023545265197754,
                0.04271312057971954
            ],
            "min" : [
                -0.03347998857498169,
                -0.11892783641815186,
                -0.042490601539611816
            ],
            "type" : "VEC3"
        },
        {
            "bufferView" : 6,
            "componentType" : 5126,
            "count" : 144,
            "type" : "VEC3"
        },
        {
            "bufferView" : 7,
            "componentType" : 5126,
            "count" : 144,
            "type" : "VEC4"
        },
        {
            "bufferView" : 8,
            "componentType" : 5126,
            "count" : 144,
            "type" : "VEC2"
        },
        {
            "bufferView" : 9,
            "componentType" : 5126,
            "count" : 216,
            "max" : [
                0.010190963745117188,
                0.20411953330039978,
                0.05369189381599426
            ],
            "min" : [
                -0.3185288906097412,
                -0.2155439853668213,
                -0.04365241900086403
            ],
            "type" : "VEC3"
        },
        {
            "bufferView" : 10,
            "componentType" : 5126,
            "count" : 216,
            "type" : "VEC3"
        },
        {
            "bufferView" : 11,
            "componentType" : 5126,
            "count" : 216,
            "type" : "VEC4"
        },
        {
            "bufferView" : 12,
            "componentType" : 5126,
            "count" : 216,
            "type" : "VEC2"
        },
        {
            "bufferView" : 13,
            "componentType" : 5126,
            "count" : 216,
            "type" : "VEC2"
        },
        {
            "bufferView" : 14,
            "componentType" : 5123,
            "count" : 336,
            "type" : "SCALAR"
        },
        {
            "bufferView" : 15,
            "componentType" : 5126,
            "count" : 748,
            "max" : [
                0.00894629955291748,
                0.22771435976028442,
                0.1523328572511673
            ],
            "min" : [
                -0.5932967662811279,
                -0.2681317925453186,
                -0.06918005645275116
            ],
            "type" : "VEC3"
        },
        {
            "bufferView" : 16,
            "componentType" : 5126,
            "count" : 748,
            "type" : "VEC3"
        },
        {
            "bufferView" : 17,
            "componentType" : 5126,
            "count" : 748,
            "type" : "VEC2"
        },
        {
            "bufferView" : 18,
            "componentType" : 5126,
            "count" : 748,
            "type" : "VEC2"
        },
        {
            "bufferView" : 19,
            "componentType" : 5123,
            "count" : 1122,
            "type" : "SCALAR"
        },
        {
            "bufferView" : 20,
            "componentType" : 5126,
            "count" : 216,
            "max" : [
                0.31852900981903076,
                0.20411953330039978,
                0.05369190871715546
            ],
            "min" : [
                -0.010190844535827637,
                -0.2155439853668213,
                -0.043652404099702835
            ],
            "type" : "VEC3"
        },
        {
            "bufferView" : 21,
            "componentType" : 5126,
            "count" : 216,
            "type" : "VEC3"
        },
        {
            "bufferView" : 22,
            "componentType" : 5126,
            "count" : 216,
            "type" : "VEC4"
        },
        {
            "bufferView" : 23,
            "componentType" : 5126,
            "count" : 216,
            "type" : "VEC2"
        },
        {
            "bufferView" : 24,
            "componentType" : 5126,
            "count" : 216,
            "type" : "VEC2"
        },
        {
            "bufferView" : 25,
            "componentType" : 5123,
            "count" : 336,
            "type" : "SCALAR"
        },
        {
            "bufferView" : 26,
            "componentType" : 5126,
            "count" : 746,
            "max" : [
                0.5932967662811279,
                0.22771435976028442,
                0.1523328572511673
            ],
            "min" : [
                -0.00894629955291748,
                -0.2681317925453186,
                -0.06918005645275116
            ],
            "type" : "VEC3"
        },
        {
            "bufferView" : 27,
            "componentType" : 5126,
            "count" : 746,
            "type" : "VEC3"
        },
        {
            "bufferView" : 28,
            "componentType" : 5126,
            "count" : 746,
            "type" : "VEC2"
        },
        {
            "bufferView" : 29,
            "componentType" : 5126,
            "count" : 746,
            "type" : "VEC2"
        },
        {
            "bufferView" : 30,
            "componentType" : 5123,
            "count" : 1122,
            "type" : "SCALAR"
        },
        {
            "bufferView" : 31,
            "componentType" : 5126,
            "count" : 2272,
            "max" : [
                0.4522090554237366,
                0.9832308888435364,
                0.6584575176239014
            ],
            "min" : [
                -0.4522090554237366,
                -0.9201778769493103,
                -0.0003120303153991699
            ],
            "type" : "VEC3"
        },
        {
            "bufferView" : 32,
            "componentType" : 5126,
            "count" : 2272,
            "type" : "VEC3"
        },
        {
            "bufferView" : 33,
            "componentType" : 5126,
            "count" : 2272,
            "type" : "VEC4"
        },
        {
            "bufferView" : 34,
            "componentType" : 5126,
            "count" : 2272,
            "type" : "VEC2"
        },
        {
            "bufferView" : 35,
            "componentType" : 5126,
            "count" : 2272,
            "type" : "VEC2"
        },
        {
            "bufferView" : 36,
            "componentType" : 5123,
            "count" : 3468,
            "type" : "SCALAR"
        }
    ],
    "bufferViews" : [
        {
            "buffer" : 0,
            "byteLength" : 1728,
            "byteOffset" : 0,
            "target" : 34962
        },
        {
            "buffer" : 0,
            "byteLength" : 1728,
            "byteOffset" : 1728,
            "target" : 34962
        },
        {
            "buffer" : 0,
            "byteLength" : 2304,
            "byteOffset" : 3456,
            "target" : 34962
        },
        {
            "buffer" : 0,
            "byteLength" : 1152,
            "byteOffset" : 5760,
            "target" : 34962
        },
        {
            "buffer" : 0,
            "byteLength" : 456,
            "byteOffset" : 6912,
            "target" : 34963
        },
        {
            "buffer" : 0,
            "byteLength" : 1728,
            "byteOffset" : 7368,
            "target" : 34962
        },
        {
            "buffer" : 0,
            "byteLength" : 1728,
            "byteOffset" : 9096,
            "target" : 34962
        },
        {
            "buffer" : 0,
            "byteLength" : 2304,
            "byteOffset" : 10824,
            "target" : 34962
        },
        {
            "buffer" : 0,
            "byteLength" : 1152,
            "byteOffset" : 13128,
            "target" : 34962
        },
        {
            "buffer" : 0,
            "byteLength" : 2592,
            "byteOffset" : 14280,
            "target" : 34962
        },
        {
            "buffer" : 0,
            "byteLength" : 2592,
            "byteOffset" : 16872,
            "target" : 34962
        },
        {
            "buffer" : 0,
            "byteLength" : 3456,
            "byteOffset" : 19464,
            "target" : 34962
        },
        {
            "buffer" : 0,
            "byteLength" : 1728,
            "byteOffset" : 22920,
            "target" : 34962
        },
        {
            "buffer" : 0,
            "byteLength" : 1728,
            "byteOffset" : 24648,
            "target" : 34962
        },
        {
            "buffer" : 0,
            "byteLength" : 672,
            "byteOffset" : 26376,
            "target" : 34963
        },
        {
            "buffer" : 0,
            "byteLength" : 8976,
            "byteOffset" : 27048,
            "target" : 34962
        },
        {
            "buffer" : 0,
            "byteLength" : 8976,
            "byteOffset" : 36024,
            "target" : 34962
        },
        {
            "buffer" : 0,
            "byteLength" : 5984,
            "byteOffset" : 45000,
            "target" : 34962
        },
        {
            "buffer" : 0,
            "byteLength" : 5984,
            "byteOffset" : 50984,
            "target" : 34962
        },
        {
            "buffer" : 0,
            "byteLength" : 2244,
            "byteOffset" : 56968,
            "target" : 34963
        },
        {
            "buffer" : 0,
            "byteLength" : 2592,
            "byteOffset" : 59212,
            "target" : 34962
        },
        {
            "buffer" : 0,
            "byteLength" : 2592,
            "byteOffset" : 61804,
            "target" : 34962
        },
        {
            "buffer" : 0,
            "byteLength" : 3456,
            "byteOffset" : 64396,
            "target" : 34962
        },
        {
            "buffer" : 0,
            "byteLength" : 1728,
            "byteOffset" : 67852,
            "target" : 34962
        },
        {
            "buffer" : 0,
            "byteLength" : 1728,
            "byteOffset" : 69580,
            "target" : 34962
        },
        {
            "buffer" : 0,
            "byteLength" : 672,
            "byteOffset" : 71308,
            "target" : 34963
        },
        {
            "buffer" : 0,
            "byteLength" : 8952,
            "byteOffset" : 71980,
            "target" : 34962
        },
        {
            "buffer" : 0,
            "byteLength" : 8952,
            "byteOffset" : 80932,
            "target" : 34962
        },
        {
            "buffer" : 0,
            "byteLength" : 5968,
            "byteOffset" : 89884,
            "target" : 34962
        },
        {
            "buffer" : 0,
            "byteLength" : 5968,
            "byteOffset" : 95852,
            "target" : 34962
        },
        {
            "buffer" : 0,
            "byteLength" : 2244,
            "byteOffset" : 101820,
            "target" : 34963
        },
        {
            "buffer" : 0,
            "byteLength" : 27264,
            "byteOffset" : 104064,
            "target" : 34962
        },
        {
            "buffer" : 0,
            "byteLength" : 27264,
            "byteOffset" : 131328,
            "target" : 34962
        },
        {
            "buffer" : 0,
            "byteLength" : 36352,
            "byteOffset" : 158592,
            "target" : 34962
        },
        {
            "buffer" : 0,
            "byteLength" : 18176,
            "byteOffset" : 194944,
            "target" : 34962
        },
        {
            "buffer" : 0,
            "byteLength" : 18176,
            "byteOffset" : 213120,
            "target" : 34962
        },
        {
            "buffer" : 0,
            "byteLength" : 6936,
            "byteOffset" : 231296,
            "target" : 34963
        }
    ],
    "buffers" : [
        {
            "byteLength" : 238232,
            "uri" : "data:application/octet-stream;base64,"
        }
    ]
}
