{
    "asset" : {
        "generator" : "Khronos glTF Blender I/O v3.3.32",
        "version" : "2.0"
    },
    "scene" : 0,
    "scenes" : [
        {
            "name" : "Scene",
            "nodes" : [
                7
            ]
        }
    ],
    "nodes" : [
        {
            "mesh" : 0,
            "name" : "antenna_l",
            "translation" : [
                0.9172021150588989,
                1.0434329509735107,
                0.011928623542189598
            ]
        },
        {
            "mesh" : 1,
            "name" : "antenna_r",
            "translation" : [
                -0.9172276854515076,
                1.0837981700897217,
                0.011914435774087906
            ]
        },
        {
            "name" : "firept",
            "scale" : [
                0.0416666679084301,
                0.0416666679084301,
                0.0416666679084301
            ],
            "translation" : [
                0,
                0,
                1.0654109716415405
            ]
        },
        {
            "children" : [
                2
            ],
            "mesh" : 2,
            "name" : "cannonbarrel",
            "translation" : [
                0.0034939427860081196,
                0.5529165267944336,
                1.075115442276001
            ]
        },
        {
            "children" : [
                0,
                1,
                3
            ],
            "mesh" : 3,
            "name" : "turret",
            "scale" : [
                24,
                24,
                24
            ],
            "translation" : [
                1.96869204955874e-05,
                30.55889129638672,
                5.035655703977682e-06
            ]
        },
        {
            "children" : [
                4
            ],
            "mesh" : 4,
            "name" : "pole_top",
            "translation" : [
                -3.9045800804160535e-05,
                18.44612693786621,
                1.2135825272707734e-05
            ]
        },
        {
            "children" : [
                5
            ],
            "mesh" : 5,
            "name" : "tower",
            "translation" : [
                1.9537694242899306e-05,
                28.011445999145508,
                -4.475691639527213e-06
            ]
        },
        {
            "children" : [
                6
            ],
            "mesh" : 6,
            "name" : "base"
        }
    ],
    "meshes" : [
        {
            "name" : "Cylinder.005",
            "primitives" : [
                {
                    "attributes" : {
                        "POSITION" : 0,
                        "NORMAL" : 1,
                        "TEXCOORD_0" : 2
                    },
                    "indices" : 3
                }
            ]
        },
        {
            "name" : "Cylinder.002",
            "primitives" : [
                {
                    "attributes" : {
                        "POSITION" : 4,
                        "NORMAL" : 5,
                        "TANGENT" : 6,
                        "TEXCOORD_0" : 7
                    },
                    "indices" : 8
                }
            ]
        },
        {
            "name" : "Cylinder.004",
            "primitives" : [
                {
                    "attributes" : {
                        "POSITION" : 9,
                        "NORMAL" : 10,
                        "TANGENT" : 11,
                        "TEXCOORD_0" : 12
                    },
                    "indices" : 13
                }
            ]
        },
        {
            "name" : "Cylinder.003",
            "primitives" : [
                {
                    "attributes" : {
                        "POSITION" : 14,
                        "NORMAL" : 15,
                        "TANGENT" : 16,
                        "TEXCOORD_0" : 17
                    },
                    "indices" : 18
                }
            ]
        },
        {
            "name" : "Mesh.003",
            "primitives" : [
                {
                    "attributes" : {
                        "POSITION" : 19,
                        "NORMAL" : 20,
                        "TANGENT" : 21,
                        "TEXCOORD_0" : 22
                    },
                    "indices" : 23
                }
            ]
        },
        {
            "name" : "Mesh.002",
            "primitives" : [
                {
                    "attributes" : {
                        "POSITION" : 24,
                        "NORMAL" : 25,
                        "TANGENT" : 26,
                        "TEXCOORD_0" : 27
                    },
                    "indices" : 28
                }
            ]
        },
        {
            "name" : "Mesh.001",
            "primitives" : [
                {
                    "attributes" : {
                        "POSITION" : 29,
                        "NORMAL" : 30,
                        "TANGENT" : 31,
                        "TEXCOORD_0" : 32
                    },
                    "indices" : 33
                }
            ]
        }
    ],
    "accessors" : [
        {
            "bufferView" : 0,
            "componentType" : 5126,
            "count" : 148,
            "max" : [
                0.01771312952041626,
                0.4475801885128021,
                0.07672618329524994
            ],
            "min" : [
                -0.01771301031112671,
                -0.48941126465797424,
                -0.0767260193824768
            ],
            "type" : "VEC3"
        },
        {
            "bufferView" : 1,
            "componentType" : 5126,
            "count" : 148,
            "type" : "VEC3"
        },
        {
            "bufferView" : 2,
            "componentType" : 5126,
            "count" : 148,
            "type" : "VEC2"
        },
        {
            "bufferView" : 3,
            "componentType" : 5123,
            "count" : 240,
            "type" : "SCALAR"
        },
        {
            "bufferView" : 4,
            "componentType" : 5126,
            "count" : 152,
            "max" : [
                0.017738640308380127,
                0.4072149991989136,
                0.07674036920070648
            ],
            "min" : [
                -0.017687618732452393,
                -0.5297764539718628,
                -0.07671183347702026
            ],
            "type" : "VEC3"
        },
        {
            "bufferView" : 5,
            "componentType" : 5126,
            "count" : 152,
            "type" : "VEC3"
        },
        {
            "bufferView" : 6,
            "componentType" : 5126,
            "count" : 152,
            "type" : "VEC4"
        },
        {
            "bufferView" : 7,
            "componentType" : 5126,
            "count" : 152,
            "type" : "VEC2"
        },
        {
            "bufferView" : 8,
            "componentType" : 5123,
            "count" : 228,
            "type" : "SCALAR"
        },
        {
            "bufferView" : 9,
            "componentType" : 5126,
            "count" : 970,
            "max" : [
                0.246806800365448,
                0.2622414827346802,
                1.0151904821395874
            ],
            "min" : [
                -0.25379472970962524,
                -0.26003116369247437,
                -2.384185791015625e-07
            ],
            "type" : "VEC3"
        },
        {
            "bufferView" : 10,
            "componentType" : 5126,
            "count" : 970,
            "type" : "VEC3"
        },
        {
            "bufferView" : 11,
            "componentType" : 5126,
            "count" : 970,
            "type" : "VEC4"
        },
        {
            "bufferView" : 12,
            "componentType" : 5126,
            "count" : 970,
            "type" : "VEC2"
        },
        {
            "bufferView" : 13,
            "componentType" : 5123,
            "count" : 1488,
            "type" : "SCALAR"
        },
        {
            "bufferView" : 14,
            "componentType" : 5126,
            "count" : 2564,
            "max" : [
                1.0113898515701294,
                1.0635783672332764,
                1.0751152038574219
            ],
            "min" : [
                -1.0113898515701294,
                0.04427945613861084,
                -0.9045826196670532
            ],
            "type" : "VEC3"
        },
        {
            "bufferView" : 15,
            "componentType" : 5126,
            "count" : 2564,
            "type" : "VEC3"
        },
        {
            "bufferView" : 16,
            "componentType" : 5126,
            "count" : 2564,
            "type" : "VEC4"
        },
        {
            "bufferView" : 17,
            "componentType" : 5126,
            "count" : 2564,
            "type" : "VEC2"
        },
        {
            "bufferView" : 18,
            "componentType" : 5123,
            "count" : 3996,
            "type" : "SCALAR"
        },
        {
            "bufferView" : 19,
            "componentType" : 5126,
            "count" : 142,
            "max" : [
                3.812910556793213,
                36.47434616088867,
                5.915473937988281
            ],
            "min" : [
                -3.812870979309082,
                -10.521780967712402,
                -5.915464401245117
            ],
            "type" : "VEC3"
        },
        {
            "bufferView" : 20,
            "componentType" : 5126,
            "count" : 142,
            "type" : "VEC3"
        },
        {
            "bufferView" : 21,
            "componentType" : 5126,
            "count" : 142,
            "type" : "VEC4"
        },
        {
            "bufferView" : 22,
            "componentType" : 5126,
            "count" : 142,
            "type" : "VEC2"
        },
        {
            "bufferView" : 23,
            "componentType" : 5123,
            "count" : 276,
            "type" : "SCALAR"
        },
        {
            "bufferView" : 24,
            "componentType" : 5126,
            "count" : 48,
            "max" : [
                4.681582450866699,
                25.408668518066406,
                4.681565761566162
            ],
            "min" : [
                -4.681621551513672,
                -18.42848777770996,
                -4.6815667152404785
            ],
            "type" : "VEC3"
        },
        {
            "bufferView" : 25,
            "componentType" : 5126,
            "count" : 48,
            "type" : "VEC3"
        },
        {
            "bufferView" : 26,
            "componentType" : 5126,
            "count" : 48,
            "type" : "VEC4"
        },
        {
            "bufferView" : 27,
            "componentType" : 5126,
            "count" : 48,
            "type" : "VEC2"
        },
        {
            "bufferView" : 28,
            "componentType" : 5123,
            "count" : 84,
            "type" : "SCALAR"
        },
        {
            "bufferView" : 29,
            "componentType" : 5126,
            "count" : 876,
            "max" : [
                29.336414337158203,
                37.083038330078125,
                39.12985610961914
            ],
            "min" : [
                -29.336414337158203,
                -0.02060171402990818,
                -29.3364200592041
            ],
            "type" : "VEC3"
        },
        {
            "bufferView" : 30,
            "componentType" : 5126,
            "count" : 876,
            "type" : "VEC3"
        },
        {
            "bufferView" : 31,
            "componentType" : 5126,
            "count" : 876,
            "type" : "VEC4"
        },
        {
            "bufferView" : 32,
            "componentType" : 5126,
            "count" : 876,
            "type" : "VEC2"
        },
        {
            "bufferView" : 33,
            "componentType" : 5123,
            "count" : 1320,
            "type" : "SCALAR"
        }
    ],
    "bufferViews" : [
        {
            "buffer" : 0,
            "byteLength" : 1776,
            "byteOffset" : 0,
            "target" : 34962
        },
        {
            "buffer" : 0,
            "byteLength" : 1776,
            "byteOffset" : 1776,
            "target" : 34962
        },
        {
            "buffer" : 0,
            "byteLength" : 1184,
            "byteOffset" : 3552,
            "target" : 34962
        },
        {
            "buffer" : 0,
            "byteLength" : 480,
            "byteOffset" : 4736,
            "target" : 34963
        },
        {
            "buffer" : 0,
            "byteLength" : 1824,
            "byteOffset" : 5216,
            "target" : 34962
        },
        {
            "buffer" : 0,
            "byteLength" : 1824,
            "byteOffset" : 7040,
            "target" : 34962
        },
        {
            "buffer" : 0,
            "byteLength" : 2432,
            "byteOffset" : 8864,
            "target" : 34962
        },
        {
            "buffer" : 0,
            "byteLength" : 1216,
            "byteOffset" : 11296,
            "target" : 34962
        },
        {
            "buffer" : 0,
            "byteLength" : 456,
            "byteOffset" : 12512,
            "target" : 34963
        },
        {
            "buffer" : 0,
            "byteLength" : 11640,
            "byteOffset" : 12968,
            "target" : 34962
        },
        {
            "buffer" : 0,
            "byteLength" : 11640,
            "byteOffset" : 24608,
            "target" : 34962
        },
        {
            "buffer" : 0,
            "byteLength" : 15520,
            "byteOffset" : 36248,
            "target" : 34962
        },
        {
            "buffer" : 0,
            "byteLength" : 7760,
            "byteOffset" : 51768,
            "target" : 34962
        },
        {
            "buffer" : 0,
            "byteLength" : 2976,
            "byteOffset" : 59528,
            "target" : 34963
        },
        {
            "buffer" : 0,
            "byteLength" : 30768,
            "byteOffset" : 62504,
            "target" : 34962
        },
        {
            "buffer" : 0,
            "byteLength" : 30768,
            "byteOffset" : 93272,
            "target" : 34962
        },
        {
            "buffer" : 0,
            "byteLength" : 41024,
            "byteOffset" : 124040,
            "target" : 34962
        },
        {
            "buffer" : 0,
            "byteLength" : 20512,
            "byteOffset" : 165064,
            "target" : 34962
        },
        {
            "buffer" : 0,
            "byteLength" : 7992,
            "byteOffset" : 185576,
            "target" : 34963
        },
        {
            "buffer" : 0,
            "byteLength" : 1704,
            "byteOffset" : 193568,
            "target" : 34962
        },
        {
            "buffer" : 0,
            "byteLength" : 1704,
            "byteOffset" : 195272,
            "target" : 34962
        },
        {
            "buffer" : 0,
            "byteLength" : 2272,
            "byteOffset" : 196976,
            "target" : 34962
        },
        {
            "buffer" : 0,
            "byteLength" : 1136,
            "byteOffset" : 199248,
            "target" : 34962
        },
        {
            "buffer" : 0,
            "byteLength" : 552,
            "byteOffset" : 200384,
            "target" : 34963
        },
        {
            "buffer" : 0,
            "byteLength" : 576,
            "byteOffset" : 200936,
            "target" : 34962
        },
        {
            "buffer" : 0,
            "byteLength" : 576,
            "byteOffset" : 201512,
            "target" : 34962
        },
        {
            "buffer" : 0,
            "byteLength" : 768,
            "byteOffset" : 202088,
            "target" : 34962
        },
        {
            "buffer" : 0,
            "byteLength" : 384,
            "byteOffset" : 202856,
            "target" : 34962
        },
        {
            "buffer" : 0,
            "byteLength" : 168,
            "byteOffset" : 203240,
            "target" : 34963
        },
        {
            "buffer" : 0,
            "byteLength" : 10512,
            "byteOffset" : 203408,
            "target" : 34962
        },
        {
            "buffer" : 0,
            "byteLength" : 10512,
            "byteOffset" : 213920,
            "target" : 34962
        },
        {
            "buffer" : 0,
            "byteLength" : 14016,
            "byteOffset" : 224432,
            "target" : 34962
        },
        {
            "buffer" : 0,
            "byteLength" : 7008,
            "byteOffset" : 238448,
            "target" : 34962
        },
        {
            "buffer" : 0,
            "byteLength" : 2640,
            "byteOffset" : 245456,
            "target" : 34963
        }
    ],
    "buffers" : [
        {
            "byteLength" : 248096,
            "uri" : "data:application/octet-stream;base64,"
        }
    ]
}
