{
    "asset" : {
        "generator" : "Khronos glTF Blender I/O v3.3.32",
        "version" : "2.0"
    },
    "scene" : 0,
    "scenes" : [
        {
            "name" : "Scene",
            "nodes" : [
                0
            ]
        }
    ],
    "nodes" : [
        {
            "mesh" : 0,
            "name" : "base"
        }
    ],
    "meshes" : [
        {
            "name" : "Cylinder.181",
            "primitives" : [
                {
                    "attributes" : {
                        "POSITION" : 0,
                        "NORMAL" : 1,
                        "TANGENT" : 2,
                        "TEXCOORD_0" : 3
                    },
                    "indices" : 4
                }
            ]
        }
    ],
    "accessors" : [
        {
            "bufferView" : 0,
            "componentType" : 5126,
            "count" : 1854,
            "max" : [
                1.4934003353118896,
                0.9694164991378784,
                1.444122076034546
            ],
            "min" : [
                -1.1814429759979248,
                -0.08565738797187805,
                -1.235679268836975
            ],
            "type" : "VEC3"
        },
        {
            "bufferView" : 1,
            "componentType" : 5126,
            "count" : 1854,
            "type" : "VEC3"
        },
        {
            "bufferView" : 2,
            "componentType" : 5126,
            "count" : 1854,
            "type" : "VEC4"
        },
        {
            "bufferView" : 3,
            "componentType" : 5126,
            "count" : 1854,
            "type" : "VEC2"
        },
        {
            "bufferView" : 4,
            "componentType" : 5123,
            "count" : 2790,
            "type" : "SCALAR"
        }
    ],
    "bufferViews" : [
        {
            "buffer" : 0,
            "byteLength" : 22248,
            "byteOffset" : 0,
            "target" : 34962
        },
        {
            "buffer" : 0,
            "byteLength" : 22248,
            "byteOffset" : 22248,
            "target" : 34962
        },
        {
            "buffer" : 0,
            "byteLength" : 29664,
            "byteOffset" : 44496,
            "target" : 34962
        },
        {
            "buffer" : 0,
            "byteLength" : 14832,
            "byteOffset" : 74160,
            "target" : 34962
        },
        {
            "buffer" : 0,
            "byteLength" : 5580,
            "byteOffset" : 88992,
            "target" : 34963
        }
    ],
    "buffers" : [
        {
            "byteLength" : 94572,
            "uri" : "data:application/octet-stream;base64,"
        }
    ]
}
